<svg xmlns="http://www.w3.org/2000/svg" xmlns:xlink="http://www.w3.org/1999/xlink" width="500" zoomAndPan="magnify" viewBox="0 0 375 374.999991" height="500" preserveAspectRatio="xMidYMid meet" version="1.0"><defs><g/></defs><rect x="-37.5" width="450" fill="#ffffff" y="-37.499999" height="449.999989" fill-opacity="1"/><rect x="-37.5" width="450" fill="#ffffff" y="-37.499999" height="449.999989" fill-opacity="1"/><g fill="#000000" fill-opacity="1"><g transform="translate(93.594992, 176.410057)"><g><path d="M 25.125 -0.4375 C 25.21875 -0.4375 25.265625 -0.363281 25.265625 -0.21875 C 25.265625 -0.0703125 25.21875 0 25.125 0 C 24.664062 0 23.957031 -0.0234375 23 -0.078125 C 22.039062 -0.117188 21.347656 -0.140625 20.921875 -0.140625 C 20.390625 -0.140625 19.71875 -0.117188 18.90625 -0.078125 C 18.132812 -0.0234375 17.546875 0 17.140625 0 C 17.046875 0 17 -0.0703125 17 -0.21875 C 17 -0.363281 17.046875 -0.4375 17.140625 -0.4375 C 18.023438 -0.4375 18.671875 -0.519531 19.078125 -0.6875 C 19.484375 -0.851562 19.6875 -1.140625 19.6875 -1.546875 C 19.6875 -1.878906 19.535156 -2.394531 19.234375 -3.09375 L 16.03125 -9.890625 L 7.46875 -9.890625 L 5.21875 -4.5625 C 4.875 -3.75 4.703125 -3.09375 4.703125 -2.59375 C 4.703125 -1.84375 4.992188 -1.296875 5.578125 -0.953125 C 6.171875 -0.609375 7.054688 -0.4375 8.234375 -0.4375 C 8.347656 -0.4375 8.40625 -0.363281 8.40625 -0.21875 C 8.40625 -0.0703125 8.347656 0 8.234375 0 C 7.796875 0 7.171875 -0.0234375 6.359375 -0.078125 C 5.453125 -0.117188 4.660156 -0.140625 3.984375 -0.140625 C 3.367188 -0.140625 2.648438 -0.117188 1.828125 -0.078125 C 1.109375 -0.0234375 0.507812 0 0.03125 0 C -0.0820312 0 -0.140625 -0.0703125 -0.140625 -0.21875 C -0.140625 -0.363281 -0.0820312 -0.4375 0.03125 -0.4375 C 0.707031 -0.4375 1.273438 -0.5625 1.734375 -0.8125 C 2.203125 -1.0625 2.644531 -1.503906 3.0625 -2.140625 C 3.488281 -2.773438 3.953125 -3.691406 4.453125 -4.890625 L 12.046875 -22.78125 C 12.085938 -22.851562 12.164062 -22.890625 12.28125 -22.890625 C 12.40625 -22.890625 12.476562 -22.851562 12.5 -22.78125 L 20.984375 -4.921875 C 21.796875 -3.148438 22.488281 -1.957031 23.0625 -1.34375 C 23.644531 -0.738281 24.332031 -0.4375 25.125 -0.4375 Z M 7.765625 -10.609375 L 15.703125 -10.609375 L 11.5 -19.484375 Z M 7.765625 -10.609375 "/></g></g></g><g fill="#000000" fill-opacity="1"><g transform="translate(119.793786, 176.410057)"><g><path d="M 25.296875 -22.46875 C 25.367188 -22.46875 25.40625 -22.394531 25.40625 -22.25 C 25.40625 -22.101562 25.367188 -22.03125 25.296875 -22.03125 C 24.296875 -22.03125 23.566406 -21.753906 23.109375 -21.203125 C 22.648438 -20.648438 22.421875 -19.753906 22.421875 -18.515625 L 22.421875 0.4375 C 22.421875 0.476562 22.359375 0.507812 22.234375 0.53125 C 22.117188 0.5625 22.039062 0.550781 22 0.5 L 5.46875 -19.515625 L 5.140625 -19.875 L 5.140625 -3.921875 C 5.140625 -2.671875 5.359375 -1.773438 5.796875 -1.234375 C 6.242188 -0.703125 6.957031 -0.4375 7.9375 -0.4375 C 8.007812 -0.4375 8.046875 -0.363281 8.046875 -0.21875 C 8.046875 -0.0703125 8.007812 0 7.9375 0 C 7.34375 0 6.890625 -0.0078125 6.578125 -0.03125 L 4.78125 -0.078125 L 2.953125 -0.03125 C 2.609375 -0.0078125 2.113281 0 1.46875 0 C 1.425781 0 1.40625 -0.0703125 1.40625 -0.21875 C 1.40625 -0.363281 1.425781 -0.4375 1.46875 -0.4375 C 2.5 -0.4375 3.226562 -0.703125 3.65625 -1.234375 C 4.09375 -1.773438 4.3125 -2.671875 4.3125 -3.921875 L 4.3125 -20.734375 C 3.375 -21.597656 2.425781 -22.03125 1.46875 -22.03125 C 1.394531 -22.03125 1.359375 -22.101562 1.359375 -22.25 C 1.359375 -22.394531 1.394531 -22.46875 1.46875 -22.46875 L 2.796875 -22.421875 C 3.085938 -22.398438 3.484375 -22.390625 3.984375 -22.390625 C 4.515625 -22.390625 4.945312 -22.398438 5.28125 -22.421875 C 5.613281 -22.453125 5.878906 -22.46875 6.078125 -22.46875 C 6.265625 -22.46875 6.398438 -22.421875 6.484375 -22.328125 C 6.566406 -22.242188 6.707031 -22.0625 6.90625 -21.78125 C 7.1875 -21.34375 7.472656 -20.945312 7.765625 -20.59375 L 21.59375 -3.59375 L 21.59375 -18.515625 C 21.59375 -19.753906 21.382812 -20.648438 20.96875 -21.203125 C 20.550781 -21.753906 19.851562 -22.03125 18.875 -22.03125 C 18.820312 -22.03125 18.796875 -22.101562 18.796875 -22.25 C 18.796875 -22.394531 18.820312 -22.46875 18.875 -22.46875 L 20.265625 -22.421875 C 20.984375 -22.378906 21.570312 -22.359375 22.03125 -22.359375 C 22.457031 -22.359375 23.054688 -22.378906 23.828125 -22.421875 Z M 25.296875 -22.46875 "/></g></g></g><g fill="#000000" fill-opacity="1"><g transform="translate(146.891012, 176.410057)"><g><path d="M 25.125 -0.4375 C 25.21875 -0.4375 25.265625 -0.363281 25.265625 -0.21875 C 25.265625 -0.0703125 25.21875 0 25.125 0 C 24.664062 0 23.957031 -0.0234375 23 -0.078125 C 22.039062 -0.117188 21.347656 -0.140625 20.921875 -0.140625 C 20.390625 -0.140625 19.71875 -0.117188 18.90625 -0.078125 C 18.132812 -0.0234375 17.546875 0 17.140625 0 C 17.046875 0 17 -0.0703125 17 -0.21875 C 17 -0.363281 17.046875 -0.4375 17.140625 -0.4375 C 18.023438 -0.4375 18.671875 -0.519531 19.078125 -0.6875 C 19.484375 -0.851562 19.6875 -1.140625 19.6875 -1.546875 C 19.6875 -1.878906 19.535156 -2.394531 19.234375 -3.09375 L 16.03125 -9.890625 L 7.46875 -9.890625 L 5.21875 -4.5625 C 4.875 -3.75 4.703125 -3.09375 4.703125 -2.59375 C 4.703125 -1.84375 4.992188 -1.296875 5.578125 -0.953125 C 6.171875 -0.609375 7.054688 -0.4375 8.234375 -0.4375 C 8.347656 -0.4375 8.40625 -0.363281 8.40625 -0.21875 C 8.40625 -0.0703125 8.347656 0 8.234375 0 C 7.796875 0 7.171875 -0.0234375 6.359375 -0.078125 C 5.453125 -0.117188 4.660156 -0.140625 3.984375 -0.140625 C 3.367188 -0.140625 2.648438 -0.117188 1.828125 -0.078125 C 1.109375 -0.0234375 0.507812 0 0.03125 0 C -0.0820312 0 -0.140625 -0.0703125 -0.140625 -0.21875 C -0.140625 -0.363281 -0.0820312 -0.4375 0.03125 -0.4375 C 0.707031 -0.4375 1.273438 -0.5625 1.734375 -0.8125 C 2.203125 -1.0625 2.644531 -1.503906 3.0625 -2.140625 C 3.488281 -2.773438 3.953125 -3.691406 4.453125 -4.890625 L 12.046875 -22.78125 C 12.085938 -22.851562 12.164062 -22.890625 12.28125 -22.890625 C 12.40625 -22.890625 12.476562 -22.851562 12.5 -22.78125 L 20.984375 -4.921875 C 21.796875 -3.148438 22.488281 -1.957031 23.0625 -1.34375 C 23.644531 -0.738281 24.332031 -0.4375 25.125 -0.4375 Z M 7.765625 -10.609375 L 15.703125 -10.609375 L 11.5 -19.484375 Z M 7.765625 -10.609375 "/></g></g></g><g fill="#000000" fill-opacity="1"><g transform="translate(173.089804, 176.410057)"><g><path d="M 5.21875 -18.25 C 5.21875 -17.320312 5.441406 -16.507812 5.890625 -15.8125 C 6.347656 -15.113281 6.90625 -14.53125 7.5625 -14.0625 C 8.21875 -13.601562 9.125 -13.023438 10.28125 -12.328125 C 11.550781 -11.554688 12.523438 -10.921875 13.203125 -10.421875 C 13.890625 -9.921875 14.476562 -9.28125 14.96875 -8.5 C 15.457031 -7.71875 15.703125 -6.789062 15.703125 -5.71875 C 15.703125 -4.5625 15.414062 -3.515625 14.84375 -2.578125 C 14.269531 -1.648438 13.425781 -0.914062 12.3125 -0.375 C 11.195312 0.164062 9.859375 0.4375 8.296875 0.4375 C 6.453125 0.4375 4.765625 0.015625 3.234375 -0.828125 C 3.117188 -0.898438 3.039062 -0.984375 3 -1.078125 C 2.96875 -1.171875 2.9375 -1.316406 2.90625 -1.515625 L 2.4375 -6.390625 C 2.414062 -6.492188 2.46875 -6.554688 2.59375 -6.578125 C 2.726562 -6.597656 2.8125 -6.5625 2.84375 -6.46875 C 3.226562 -4.738281 3.941406 -3.25 4.984375 -2 C 6.023438 -0.757812 7.40625 -0.140625 9.125 -0.140625 C 10.320312 -0.140625 11.332031 -0.46875 12.15625 -1.125 C 12.988281 -1.789062 13.40625 -2.84375 13.40625 -4.28125 C 13.40625 -5.351562 13.164062 -6.285156 12.6875 -7.078125 C 12.207031 -7.867188 11.625 -8.519531 10.9375 -9.03125 C 10.257812 -9.550781 9.332031 -10.160156 8.15625 -10.859375 C 7.007812 -11.546875 6.101562 -12.140625 5.4375 -12.640625 C 4.78125 -13.148438 4.222656 -13.785156 3.765625 -14.546875 C 3.316406 -15.316406 3.09375 -16.21875 3.09375 -17.25 C 3.09375 -18.445312 3.410156 -19.46875 4.046875 -20.3125 C 4.679688 -21.164062 5.503906 -21.800781 6.515625 -22.21875 C 7.535156 -22.644531 8.625 -22.859375 9.78125 -22.859375 C 11.1875 -22.859375 12.585938 -22.570312 13.984375 -22 C 14.335938 -21.875 14.515625 -21.671875 14.515625 -21.390625 L 14.765625 -17.25 C 14.765625 -17.15625 14.703125 -17.109375 14.578125 -17.109375 C 14.460938 -17.109375 14.394531 -17.15625 14.375 -17.25 C 14.1875 -18.5 13.671875 -19.65625 12.828125 -20.71875 C 11.992188 -21.78125 10.785156 -22.3125 9.203125 -22.3125 C 7.859375 -22.3125 6.859375 -21.921875 6.203125 -21.140625 C 5.546875 -20.367188 5.21875 -19.40625 5.21875 -18.25 Z M 5.21875 -18.25 "/></g></g></g><g fill="#000000" fill-opacity="1"><g transform="translate(191.705768, 176.410057)"><g><path d="M 6.796875 -21.8125 C 5.285156 -21.8125 4.148438 -21.425781 3.390625 -20.65625 C 2.640625 -19.894531 2.097656 -18.59375 1.765625 -16.75 C 1.765625 -16.695312 1.695312 -16.671875 1.5625 -16.671875 C 1.425781 -16.671875 1.359375 -16.695312 1.359375 -16.75 C 1.460938 -17.613281 1.570312 -18.738281 1.6875 -20.125 C 1.8125 -21.507812 1.875 -22.550781 1.875 -23.25 C 1.875 -23.375 1.9375 -23.4375 2.0625 -23.4375 C 2.195312 -23.4375 2.265625 -23.375 2.265625 -23.25 C 2.265625 -22.726562 2.910156 -22.46875 4.203125 -22.46875 C 6.242188 -22.394531 8.648438 -22.359375 11.421875 -22.359375 C 12.835938 -22.359375 14.335938 -22.378906 15.921875 -22.421875 L 18.359375 -22.46875 C 19.222656 -22.46875 19.863281 -22.523438 20.28125 -22.640625 C 20.707031 -22.765625 20.976562 -23.003906 21.09375 -23.359375 C 21.113281 -23.453125 21.179688 -23.5 21.296875 -23.5 C 21.421875 -23.5 21.484375 -23.453125 21.484375 -23.359375 C 21.421875 -22.660156 21.351562 -21.601562 21.28125 -20.1875 C 21.207031 -18.78125 21.171875 -17.632812 21.171875 -16.75 C 21.171875 -16.695312 21.097656 -16.671875 20.953125 -16.671875 C 20.804688 -16.671875 20.734375 -16.695312 20.734375 -16.75 C 20.660156 -18.613281 20.273438 -19.921875 19.578125 -20.671875 C 18.890625 -21.429688 17.742188 -21.8125 16.140625 -21.8125 C 15.054688 -21.8125 14.285156 -21.765625 13.828125 -21.671875 C 13.378906 -21.578125 13.070312 -21.375 12.90625 -21.0625 C 12.738281 -20.75 12.65625 -20.222656 12.65625 -19.484375 L 12.65625 -2.90625 C 12.65625 -2.164062 12.738281 -1.628906 12.90625 -1.296875 C 13.070312 -0.960938 13.394531 -0.734375 13.875 -0.609375 C 14.351562 -0.492188 15.109375 -0.4375 16.140625 -0.4375 C 16.210938 -0.4375 16.25 -0.363281 16.25 -0.21875 C 16.25 -0.0703125 16.210938 0 16.140625 0 C 15.347656 0 14.710938 -0.0078125 14.234375 -0.03125 L 11.421875 -0.078125 L 8.734375 -0.03125 C 8.253906 -0.0078125 7.59375 0 6.75 0 C 6.707031 0 6.6875 -0.0703125 6.6875 -0.21875 C 6.6875 -0.363281 6.707031 -0.4375 6.75 -0.4375 C 7.78125 -0.4375 8.535156 -0.492188 9.015625 -0.609375 C 9.492188 -0.734375 9.820312 -0.96875 10 -1.3125 C 10.1875 -1.65625 10.28125 -2.1875 10.28125 -2.90625 L 10.28125 -19.546875 C 10.28125 -20.296875 10.195312 -20.816406 10.03125 -21.109375 C 9.863281 -21.410156 9.550781 -21.601562 9.09375 -21.6875 C 8.632812 -21.769531 7.867188 -21.8125 6.796875 -21.8125 Z M 6.796875 -21.8125 "/></g></g></g><g fill="#000000" fill-opacity="1"><g transform="translate(215.460803, 176.410057)"><g><path d="M 25.125 -0.4375 C 25.21875 -0.4375 25.265625 -0.363281 25.265625 -0.21875 C 25.265625 -0.0703125 25.21875 0 25.125 0 C 24.664062 0 23.957031 -0.0234375 23 -0.078125 C 22.039062 -0.117188 21.347656 -0.140625 20.921875 -0.140625 C 20.390625 -0.140625 19.71875 -0.117188 18.90625 -0.078125 C 18.132812 -0.0234375 17.546875 0 17.140625 0 C 17.046875 0 17 -0.0703125 17 -0.21875 C 17 -0.363281 17.046875 -0.4375 17.140625 -0.4375 C 18.023438 -0.4375 18.671875 -0.519531 19.078125 -0.6875 C 19.484375 -0.851562 19.6875 -1.140625 19.6875 -1.546875 C 19.6875 -1.878906 19.535156 -2.394531 19.234375 -3.09375 L 16.03125 -9.890625 L 7.46875 -9.890625 L 5.21875 -4.5625 C 4.875 -3.75 4.703125 -3.09375 4.703125 -2.59375 C 4.703125 -1.84375 4.992188 -1.296875 5.578125 -0.953125 C 6.171875 -0.609375 7.054688 -0.4375 8.234375 -0.4375 C 8.347656 -0.4375 8.40625 -0.363281 8.40625 -0.21875 C 8.40625 -0.0703125 8.347656 0 8.234375 0 C 7.796875 0 7.171875 -0.0234375 6.359375 -0.078125 C 5.453125 -0.117188 4.660156 -0.140625 3.984375 -0.140625 C 3.367188 -0.140625 2.648438 -0.117188 1.828125 -0.078125 C 1.109375 -0.0234375 0.507812 0 0.03125 0 C -0.0820312 0 -0.140625 -0.0703125 -0.140625 -0.21875 C -0.140625 -0.363281 -0.0820312 -0.4375 0.03125 -0.4375 C 0.707031 -0.4375 1.273438 -0.5625 1.734375 -0.8125 C 2.203125 -1.0625 2.644531 -1.503906 3.0625 -2.140625 C 3.488281 -2.773438 3.953125 -3.691406 4.453125 -4.890625 L 12.046875 -22.78125 C 12.085938 -22.851562 12.164062 -22.890625 12.28125 -22.890625 C 12.40625 -22.890625 12.476562 -22.851562 12.5 -22.78125 L 20.984375 -4.921875 C 21.796875 -3.148438 22.488281 -1.957031 23.0625 -1.34375 C 23.644531 -0.738281 24.332031 -0.4375 25.125 -0.4375 Z M 7.765625 -10.609375 L 15.703125 -10.609375 L 11.5 -19.484375 Z M 7.765625 -10.609375 "/></g></g></g><g fill="#000000" fill-opacity="1"><g transform="translate(241.659592, 176.410057)"><g><path d="M 5.21875 -18.25 C 5.21875 -17.320312 5.441406 -16.507812 5.890625 -15.8125 C 6.347656 -15.113281 6.90625 -14.53125 7.5625 -14.0625 C 8.21875 -13.601562 9.125 -13.023438 10.28125 -12.328125 C 11.550781 -11.554688 12.523438 -10.921875 13.203125 -10.421875 C 13.890625 -9.921875 14.476562 -9.28125 14.96875 -8.5 C 15.457031 -7.71875 15.703125 -6.789062 15.703125 -5.71875 C 15.703125 -4.5625 15.414062 -3.515625 14.84375 -2.578125 C 14.269531 -1.648438 13.425781 -0.914062 12.3125 -0.375 C 11.195312 0.164062 9.859375 0.4375 8.296875 0.4375 C 6.453125 0.4375 4.765625 0.015625 3.234375 -0.828125 C 3.117188 -0.898438 3.039062 -0.984375 3 -1.078125 C 2.96875 -1.171875 2.9375 -1.316406 2.90625 -1.515625 L 2.4375 -6.390625 C 2.414062 -6.492188 2.46875 -6.554688 2.59375 -6.578125 C 2.726562 -6.597656 2.8125 -6.5625 2.84375 -6.46875 C 3.226562 -4.738281 3.941406 -3.25 4.984375 -2 C 6.023438 -0.757812 7.40625 -0.140625 9.125 -0.140625 C 10.320312 -0.140625 11.332031 -0.46875 12.15625 -1.125 C 12.988281 -1.789062 13.40625 -2.84375 13.40625 -4.28125 C 13.40625 -5.351562 13.164062 -6.285156 12.6875 -7.078125 C 12.207031 -7.867188 11.625 -8.519531 10.9375 -9.03125 C 10.257812 -9.550781 9.332031 -10.160156 8.15625 -10.859375 C 7.007812 -11.546875 6.101562 -12.140625 5.4375 -12.640625 C 4.78125 -13.148438 4.222656 -13.785156 3.765625 -14.546875 C 3.316406 -15.316406 3.09375 -16.21875 3.09375 -17.25 C 3.09375 -18.445312 3.410156 -19.46875 4.046875 -20.3125 C 4.679688 -21.164062 5.503906 -21.800781 6.515625 -22.21875 C 7.535156 -22.644531 8.625 -22.859375 9.78125 -22.859375 C 11.1875 -22.859375 12.585938 -22.570312 13.984375 -22 C 14.335938 -21.875 14.515625 -21.671875 14.515625 -21.390625 L 14.765625 -17.25 C 14.765625 -17.15625 14.703125 -17.109375 14.578125 -17.109375 C 14.460938 -17.109375 14.394531 -17.15625 14.375 -17.25 C 14.1875 -18.5 13.671875 -19.65625 12.828125 -20.71875 C 11.992188 -21.78125 10.785156 -22.3125 9.203125 -22.3125 C 7.859375 -22.3125 6.859375 -21.921875 6.203125 -21.140625 C 5.546875 -20.367188 5.21875 -19.40625 5.21875 -18.25 Z M 5.21875 -18.25 "/></g></g></g><g fill="#000000" fill-opacity="1"><g transform="translate(260.275549, 176.410057)"><g><path d="M 7.15625 -2.90625 C 7.15625 -2.1875 7.222656 -1.65625 7.359375 -1.3125 C 7.503906 -0.96875 7.785156 -0.734375 8.203125 -0.609375 C 8.628906 -0.492188 9.296875 -0.4375 10.203125 -0.4375 C 10.273438 -0.4375 10.3125 -0.363281 10.3125 -0.21875 C 10.3125 -0.0703125 10.273438 0 10.203125 0 C 9.484375 0 8.910156 -0.0078125 8.484375 -0.03125 L 5.9375 -0.078125 L 3.453125 -0.03125 C 3.015625 -0.0078125 2.425781 0 1.6875 0 C 1.613281 0 1.578125 -0.0703125 1.578125 -0.21875 C 1.578125 -0.363281 1.613281 -0.4375 1.6875 -0.4375 C 2.601562 -0.4375 3.269531 -0.492188 3.6875 -0.609375 C 4.101562 -0.734375 4.390625 -0.96875 4.546875 -1.3125 C 4.703125 -1.65625 4.78125 -2.1875 4.78125 -2.90625 L 4.78125 -19.546875 C 4.78125 -20.265625 4.703125 -20.789062 4.546875 -21.125 C 4.390625 -21.46875 4.101562 -21.703125 3.6875 -21.828125 C 3.269531 -21.960938 2.601562 -22.03125 1.6875 -22.03125 C 1.613281 -22.03125 1.578125 -22.101562 1.578125 -22.25 C 1.578125 -22.394531 1.613281 -22.46875 1.6875 -22.46875 L 3.453125 -22.421875 C 4.453125 -22.378906 5.28125 -22.359375 5.9375 -22.359375 C 6.65625 -22.359375 7.515625 -22.378906 8.515625 -22.421875 L 10.203125 -22.46875 C 10.273438 -22.46875 10.3125 -22.394531 10.3125 -22.25 C 10.3125 -22.101562 10.273438 -22.03125 10.203125 -22.03125 C 9.316406 -22.03125 8.664062 -21.957031 8.25 -21.8125 C 7.832031 -21.664062 7.546875 -21.421875 7.390625 -21.078125 C 7.234375 -20.734375 7.15625 -20.203125 7.15625 -19.484375 Z M 7.15625 -2.90625 "/></g></g></g><g fill="#000000" fill-opacity="1"><g transform="translate(273.177438, 176.410057)"><g><path d="M 7.15625 -2.90625 C 7.15625 -2.1875 7.222656 -1.65625 7.359375 -1.3125 C 7.503906 -0.96875 7.785156 -0.734375 8.203125 -0.609375 C 8.628906 -0.492188 9.296875 -0.4375 10.203125 -0.4375 C 10.273438 -0.4375 10.3125 -0.363281 10.3125 -0.21875 C 10.3125 -0.0703125 10.273438 0 10.203125 0 C 9.484375 0 8.910156 -0.0078125 8.484375 -0.03125 L 5.9375 -0.078125 L 3.453125 -0.03125 C 3.015625 -0.0078125 2.425781 0 1.6875 0 C 1.613281 0 1.578125 -0.0703125 1.578125 -0.21875 C 1.578125 -0.363281 1.613281 -0.4375 1.6875 -0.4375 C 2.601562 -0.4375 3.269531 -0.492188 3.6875 -0.609375 C 4.101562 -0.734375 4.390625 -0.96875 4.546875 -1.3125 C 4.703125 -1.65625 4.78125 -2.1875 4.78125 -2.90625 L 4.78125 -19.546875 C 4.78125 -20.265625 4.703125 -20.789062 4.546875 -21.125 C 4.390625 -21.46875 4.101562 -21.703125 3.6875 -21.828125 C 3.269531 -21.960938 2.601562 -22.03125 1.6875 -22.03125 C 1.613281 -22.03125 1.578125 -22.101562 1.578125 -22.25 C 1.578125 -22.394531 1.613281 -22.46875 1.6875 -22.46875 L 3.453125 -22.421875 C 4.453125 -22.378906 5.28125 -22.359375 5.9375 -22.359375 C 6.65625 -22.359375 7.515625 -22.378906 8.515625 -22.421875 L 10.203125 -22.46875 C 10.273438 -22.46875 10.3125 -22.394531 10.3125 -22.25 C 10.3125 -22.101562 10.273438 -22.03125 10.203125 -22.03125 C 9.316406 -22.03125 8.664062 -21.957031 8.25 -21.8125 C 7.832031 -21.664062 7.546875 -21.421875 7.390625 -21.078125 C 7.234375 -20.734375 7.15625 -20.203125 7.15625 -19.484375 Z M 7.15625 -2.90625 "/></g></g></g><g fill="#000000" fill-opacity="1"><g transform="translate(286.079327, 176.410057)"><g><path d="M 25.125 -0.4375 C 25.21875 -0.4375 25.265625 -0.363281 25.265625 -0.21875 C 25.265625 -0.0703125 25.21875 0 25.125 0 C 24.664062 0 23.957031 -0.0234375 23 -0.078125 C 22.039062 -0.117188 21.347656 -0.140625 20.921875 -0.140625 C 20.390625 -0.140625 19.71875 -0.117188 18.90625 -0.078125 C 18.132812 -0.0234375 17.546875 0 17.140625 0 C 17.046875 0 17 -0.0703125 17 -0.21875 C 17 -0.363281 17.046875 -0.4375 17.140625 -0.4375 C 18.023438 -0.4375 18.671875 -0.519531 19.078125 -0.6875 C 19.484375 -0.851562 19.6875 -1.140625 19.6875 -1.546875 C 19.6875 -1.878906 19.535156 -2.394531 19.234375 -3.09375 L 16.03125 -9.890625 L 7.46875 -9.890625 L 5.21875 -4.5625 C 4.875 -3.75 4.703125 -3.09375 4.703125 -2.59375 C 4.703125 -1.84375 4.992188 -1.296875 5.578125 -0.953125 C 6.171875 -0.609375 7.054688 -0.4375 8.234375 -0.4375 C 8.347656 -0.4375 8.40625 -0.363281 8.40625 -0.21875 C 8.40625 -0.0703125 8.347656 0 8.234375 0 C 7.796875 0 7.171875 -0.0234375 6.359375 -0.078125 C 5.453125 -0.117188 4.660156 -0.140625 3.984375 -0.140625 C 3.367188 -0.140625 2.648438 -0.117188 1.828125 -0.078125 C 1.109375 -0.0234375 0.507812 0 0.03125 0 C -0.0820312 0 -0.140625 -0.0703125 -0.140625 -0.21875 C -0.140625 -0.363281 -0.0820312 -0.4375 0.03125 -0.4375 C 0.707031 -0.4375 1.273438 -0.5625 1.734375 -0.8125 C 2.203125 -1.0625 2.644531 -1.503906 3.0625 -2.140625 C 3.488281 -2.773438 3.953125 -3.691406 4.453125 -4.890625 L 12.046875 -22.78125 C 12.085938 -22.851562 12.164062 -22.890625 12.28125 -22.890625 C 12.40625 -22.890625 12.476562 -22.851562 12.5 -22.78125 L 20.984375 -4.921875 C 21.796875 -3.148438 22.488281 -1.957031 23.0625 -1.34375 C 23.644531 -0.738281 24.332031 -0.4375 25.125 -0.4375 Z M 7.765625 -10.609375 L 15.703125 -10.609375 L 11.5 -19.484375 Z M 7.765625 -10.609375 "/></g></g></g><g fill="#000000" fill-opacity="1"><g transform="translate(63.351444, 176.410057)"><g><path d="M 11.21875 -14.34375 C 12.25 -14.34375 13.207031 -14.085938 14.09375 -13.578125 C 14.976562 -13.078125 15.679688 -12.328125 16.203125 -11.328125 C 16.734375 -10.335938 17 -9.125 17 -7.6875 C 17 -5.96875 16.617188 -4.488281 15.859375 -3.25 C 15.109375 -2.019531 14.128906 -1.09375 12.921875 -0.46875 C 11.710938 0.15625 10.4375 0.46875 9.09375 0.46875 C 7.25 0.46875 5.617188 -0.0546875 4.203125 -1.109375 L 1.46875 0.1875 L 1.40625 0.1875 C 1.3125 0.1875 1.25 0.132812 1.21875 0.03125 C 1.195312 -0.0625 1.222656 -0.132812 1.296875 -0.1875 C 2.054688 -0.707031 2.59375 -1.203125 2.90625 -1.671875 C 3.21875 -2.140625 3.375 -2.816406 3.375 -3.703125 L 3.375 -21.453125 C 3.375 -22.316406 3.285156 -22.941406 3.109375 -23.328125 C 2.929688 -23.710938 2.625 -23.90625 2.1875 -23.90625 C 1.851562 -23.90625 1.316406 -23.75 0.578125 -23.4375 L 0.5 -23.4375 C 0.425781 -23.4375 0.367188 -23.492188 0.328125 -23.609375 C 0.296875 -23.734375 0.316406 -23.804688 0.390625 -23.828125 L 4.890625 -26.015625 L 5.0625 -26.0625 C 5.113281 -26.0625 5.179688 -26.03125 5.265625 -25.96875 C 5.347656 -25.90625 5.390625 -25.835938 5.390625 -25.765625 L 5.390625 -11.21875 C 6.296875 -12.175781 7.203125 -12.9375 8.109375 -13.5 C 9.023438 -14.0625 10.0625 -14.34375 11.21875 -14.34375 Z M 10.203125 -0.21875 C 11.597656 -0.21875 12.679688 -0.753906 13.453125 -1.828125 C 14.234375 -2.910156 14.625 -4.457031 14.625 -6.46875 C 14.625 -8.625 14.203125 -10.273438 13.359375 -11.421875 C 12.523438 -12.578125 11.414062 -13.15625 10.03125 -13.15625 C 9.21875 -13.15625 8.4375 -12.929688 7.6875 -12.484375 C 6.945312 -12.046875 6.179688 -11.429688 5.390625 -10.640625 L 5.390625 -4.75 C 5.390625 -3.6875 5.644531 -2.820312 6.15625 -2.15625 C 6.675781 -1.488281 7.304688 -1 8.046875 -0.6875 C 8.796875 -0.375 9.515625 -0.21875 10.203125 -0.21875 Z M 10.203125 -0.21875 "/></g></g></g><g fill="#000000" fill-opacity="1"><g transform="translate(82.650225, 176.410057)"><g><path d="M 15.484375 -13.875 C 15.554688 -13.875 15.59375 -13.800781 15.59375 -13.65625 C 15.59375 -13.507812 15.554688 -13.4375 15.484375 -13.4375 C 14.890625 -13.4375 14.375 -13.21875 13.9375 -12.78125 C 13.507812 -12.351562 13.101562 -11.648438 12.71875 -10.671875 L 8.34375 1 C 7.457031 3.332031 6.625 5.148438 5.84375 6.453125 C 5.0625 7.753906 4.253906 8.6875 3.421875 9.25 C 2.597656 9.8125 1.648438 10.09375 0.578125 10.09375 C 0.046875 10.09375 -0.390625 9.972656 -0.734375 9.734375 C -1.085938 9.492188 -1.265625 9.148438 -1.265625 8.703125 C -1.265625 8.359375 -1.15625 8.09375 -0.9375 7.90625 C -0.71875 7.71875 -0.453125 7.625 -0.140625 7.625 C 0.171875 7.625 0.429688 7.65625 0.640625 7.71875 C 0.859375 7.789062 1.085938 7.914062 1.328125 8.09375 C 1.378906 8.113281 1.515625 8.179688 1.734375 8.296875 C 1.960938 8.421875 2.25 8.484375 2.59375 8.484375 C 3.164062 8.484375 3.707031 8.226562 4.21875 7.71875 C 4.738281 7.21875 5.289062 6.375 5.875 5.1875 C 6.457031 4.007812 7.144531 2.375 7.9375 0.28125 L 2.484375 -10.890625 C 1.929688 -11.941406 1.507812 -12.628906 1.21875 -12.953125 C 0.9375 -13.273438 0.566406 -13.4375 0.109375 -13.4375 C 0.0546875 -13.4375 0.03125 -13.507812 0.03125 -13.65625 C 0.03125 -13.800781 0.0546875 -13.875 0.109375 -13.875 L 1.328125 -13.84375 C 1.617188 -13.8125 2.015625 -13.796875 2.515625 -13.796875 L 4.8125 -13.84375 C 5.144531 -13.863281 5.613281 -13.875 6.21875 -13.875 C 6.269531 -13.875 6.296875 -13.800781 6.296875 -13.65625 C 6.296875 -13.507812 6.269531 -13.4375 6.21875 -13.4375 C 4.832031 -13.4375 4.140625 -13.160156 4.140625 -12.609375 C 4.140625 -12.472656 4.195312 -12.285156 4.3125 -12.046875 L 9.0625 -2.296875 L 11.9375 -10.5625 C 12.125 -11.132812 12.21875 -11.59375 12.21875 -11.9375 C 12.21875 -12.488281 12 -12.875 11.5625 -13.09375 C 11.132812 -13.320312 10.429688 -13.4375 9.453125 -13.4375 C 9.398438 -13.4375 9.375 -13.507812 9.375 -13.65625 C 9.375 -13.800781 9.398438 -13.875 9.453125 -13.875 C 10.097656 -13.875 10.585938 -13.863281 10.921875 -13.84375 L 13.078125 -13.796875 L 14.375 -13.84375 C 14.613281 -13.863281 14.984375 -13.875 15.484375 -13.875 Z M 15.484375 -13.875 "/></g></g></g></svg>